<?xml version="1.0" encoding="UTF-8" standalone="no"?>
<!DOCTYPE svg PUBLIC "-//W3C//DTD SVG 1.1//EN"
 "http://www.w3.org/Graphics/SVG/1.1/DTD/svg11.dtd">
<!-- Generated by graphviz version 2.36.0 (20140111.2315)
 -->
<!-- Title: controllers_diagram Pages: 1 -->
<svg width="739pt" height="795pt"
 viewBox="0.00 0.00 739.00 795.00" xmlns="http://www.w3.org/2000/svg" xmlns:xlink="http://www.w3.org/1999/xlink">
<g id="graph0" class="graph" transform="scale(1 1) rotate(0) translate(4 791)">
<title>controllers_diagram</title>
<polygon fill="white" stroke="none" points="-4,4 -4,-791 735,-791 735,4 -4,4"/>
<!-- _diagram_info -->
<g id="node1" class="node"><title>_diagram_info</title>
<text text-anchor="start" x="399" y="-199.6" font-family="Times,serif" font-size="13.00">Controllers diagram</text>
<text text-anchor="start" x="399" y="-185.6" font-family="Times,serif" font-size="13.00">Date: Abr 26 2015 &#45; 19:01</text>
<text text-anchor="start" x="399" y="-171.6" font-family="Times,serif" font-size="13.00">Migration version: 20150424151228</text>
<text text-anchor="start" x="399" y="-157.6" font-family="Times,serif" font-size="13.00">Generated by RailRoady 1.3.0</text>
<text text-anchor="start" x="399" y="-143.6" font-family="Times,serif" font-size="13.00">http://railroady.prestonlee.com</text>
</g>
<!-- SessionsController -->
<g id="node2" class="node"><title>SessionsController</title>
<path fill="none" stroke="black" d="M624,-255.5C624,-255.5 719,-255.5 719,-255.5 725,-255.5 731,-261.5 731,-267.5 731,-267.5 731,-337.5 731,-337.5 731,-343.5 725,-349.5 719,-349.5 719,-349.5 624,-349.5 624,-349.5 618,-349.5 612,-343.5 612,-337.5 612,-337.5 612,-267.5 612,-267.5 612,-261.5 618,-255.5 624,-255.5"/>
<text text-anchor="middle" x="671.5" y="-334.3" font-family="Times,serif" font-size="14.00">SessionsController</text>
<polyline fill="none" stroke="black" points="612,-326.5 731,-326.5 "/>
<polyline fill="none" stroke="black" points="612,-302.5 731,-302.5 "/>
<polyline fill="none" stroke="black" points="612,-278.5 731,-278.5 "/>
<text text-anchor="start" x="620" y="-263.3" font-family="Times,serif" font-size="14.00">_layout</text>
</g>
<!-- DocumentsController -->
<g id="node3" class="node"><title>DocumentsController</title>
<path fill="none" stroke="black" d="M233,-204.5C233,-204.5 343,-204.5 343,-204.5 349,-204.5 355,-210.5 355,-216.5 355,-216.5 355,-480.5 355,-480.5 355,-486.5 349,-492.5 343,-492.5 343,-492.5 233,-492.5 233,-492.5 227,-492.5 221,-486.5 221,-480.5 221,-480.5 221,-216.5 221,-216.5 221,-210.5 227,-204.5 233,-204.5"/>
<text text-anchor="middle" x="288" y="-477.3" font-family="Times,serif" font-size="14.00">DocumentsController</text>
<polyline fill="none" stroke="black" points="221,-469.5 355,-469.5 "/>
<text text-anchor="start" x="229" y="-454.3" font-family="Times,serif" font-size="14.00">checkout</text>
<text text-anchor="start" x="229" y="-439.3" font-family="Times,serif" font-size="14.00">download</text>
<text text-anchor="start" x="229" y="-424.3" font-family="Times,serif" font-size="14.00">new</text>
<text text-anchor="start" x="229" y="-409.3" font-family="Times,serif" font-size="14.00">show</text>
<text text-anchor="start" x="229" y="-394.3" font-family="Times,serif" font-size="14.00">validar</text>
<text text-anchor="start" x="229" y="-379.3" font-family="Times,serif" font-size="14.00">validar_create</text>
<polyline fill="none" stroke="black" points="221,-371.5 355,-371.5 "/>
<polyline fill="none" stroke="black" points="221,-347.5 355,-347.5 "/>
<text text-anchor="start" x="229" y="-332.3" font-family="Times,serif" font-size="14.00">_layout</text>
<text text-anchor="start" x="229" y="-317.3" font-family="Times,serif" font-size="14.00">create_history</text>
<text text-anchor="start" x="229" y="-302.3" font-family="Times,serif" font-size="14.00">create_notification</text>
<text text-anchor="start" x="229" y="-287.3" font-family="Times,serif" font-size="14.00">do_ocr</text>
<text text-anchor="start" x="229" y="-272.3" font-family="Times,serif" font-size="14.00">document_params</text>
<text text-anchor="start" x="229" y="-257.3" font-family="Times,serif" font-size="14.00">get_document_type</text>
<text text-anchor="start" x="229" y="-242.3" font-family="Times,serif" font-size="14.00">get_folders</text>
<text text-anchor="start" x="229" y="-227.3" font-family="Times,serif" font-size="14.00">get_user_groups</text>
<text text-anchor="start" x="229" y="-212.3" font-family="Times,serif" font-size="14.00">notification_params</text>
</g>
<!-- ApplicationController -->
<g id="node4" class="node"><title>ApplicationController</title>
<path fill="none" stroke="black" d="M403,-255.5C403,-255.5 573,-255.5 573,-255.5 579,-255.5 585,-261.5 585,-267.5 585,-267.5 585,-456.5 585,-456.5 585,-462.5 579,-468.5 573,-468.5 573,-468.5 403,-468.5 403,-468.5 397,-468.5 391,-462.5 391,-456.5 391,-456.5 391,-267.5 391,-267.5 391,-261.5 397,-255.5 403,-255.5"/>
<text text-anchor="middle" x="488" y="-453.3" font-family="Times,serif" font-size="14.00">ApplicationController</text>
<polyline fill="none" stroke="black" points="391,-445.5 585,-445.5 "/>
<text text-anchor="start" x="399" y="-430.3" font-family="Times,serif" font-size="14.00">add_all_parent_breadcrumb</text>
<text text-anchor="start" x="399" y="-415.3" font-family="Times,serif" font-size="14.00">breadcrumb_for_actions</text>
<text text-anchor="start" x="399" y="-400.3" font-family="Times,serif" font-size="14.00">check_current_folder</text>
<text text-anchor="start" x="399" y="-385.3" font-family="Times,serif" font-size="14.00">configure_permitted_parameters</text>
<text text-anchor="start" x="399" y="-370.3" font-family="Times,serif" font-size="14.00">get_current_user_notifications</text>
<text text-anchor="start" x="399" y="-355.3" font-family="Times,serif" font-size="14.00">get_model</text>
<text text-anchor="start" x="399" y="-340.3" font-family="Times,serif" font-size="14.00">get_object</text>
<text text-anchor="start" x="399" y="-325.3" font-family="Times,serif" font-size="14.00">get_side_bar_files</text>
<text text-anchor="start" x="399" y="-310.3" font-family="Times,serif" font-size="14.00">get_variable</text>
<polyline fill="none" stroke="black" points="391,-302.5 585,-302.5 "/>
<polyline fill="none" stroke="black" points="391,-278.5 585,-278.5 "/>
<text text-anchor="start" x="399" y="-263.3" font-family="Times,serif" font-size="14.00">_layout</text>
</g>
<!-- HomepagesController -->
<g id="node5" class="node"><title>HomepagesController</title>
<path fill="none" stroke="black" d="M63,-527.5C63,-527.5 176,-527.5 176,-527.5 182,-527.5 188,-533.5 188,-539.5 188,-539.5 188,-608.5 188,-608.5 188,-614.5 182,-620.5 176,-620.5 176,-620.5 63,-620.5 63,-620.5 57,-620.5 51,-614.5 51,-608.5 51,-608.5 51,-539.5 51,-539.5 51,-533.5 57,-527.5 63,-527.5"/>
<text text-anchor="middle" x="119.5" y="-605.3" font-family="Times,serif" font-size="14.00">HomepagesController</text>
<polyline fill="none" stroke="black" points="51,-597.5 188,-597.5 "/>
<text text-anchor="start" x="59" y="-582.3" font-family="Times,serif" font-size="14.00">index</text>
<polyline fill="none" stroke="black" points="51,-574.5 188,-574.5 "/>
<polyline fill="none" stroke="black" points="51,-550.5 188,-550.5 "/>
<text text-anchor="start" x="59" y="-535.3" font-family="Times,serif" font-size="14.00">_layout</text>
</g>
<!-- SistemConfigurationsController -->
<g id="node6" class="node"><title>SistemConfigurationsController</title>
<path fill="none" stroke="black" d="M233,-527.5C233,-527.5 400,-527.5 400,-527.5 406,-527.5 412,-533.5 412,-539.5 412,-539.5 412,-623.5 412,-623.5 412,-629.5 406,-635.5 400,-635.5 400,-635.5 233,-635.5 233,-635.5 227,-635.5 221,-629.5 221,-623.5 221,-623.5 221,-539.5 221,-539.5 221,-533.5 227,-527.5 233,-527.5"/>
<text text-anchor="middle" x="316.5" y="-620.3" font-family="Times,serif" font-size="14.00">SistemConfigurationsController</text>
<polyline fill="none" stroke="black" points="221,-612.5 412,-612.5 "/>
<text text-anchor="start" x="229" y="-597.3" font-family="Times,serif" font-size="14.00">show</text>
<polyline fill="none" stroke="black" points="221,-589.5 412,-589.5 "/>
<polyline fill="none" stroke="black" points="221,-565.5 412,-565.5 "/>
<text text-anchor="start" x="229" y="-550.3" font-family="Times,serif" font-size="14.00">_layout</text>
<text text-anchor="start" x="229" y="-535.3" font-family="Times,serif" font-size="14.00">sistem_configuration_params</text>
</g>
<!-- DocumentProcessesController -->
<g id="node7" class="node"><title>DocumentProcessesController</title>
<path fill="none" stroke="black" d="M12,-646.5C12,-646.5 170,-646.5 170,-646.5 176,-646.5 182,-652.5 182,-658.5 182,-658.5 182,-743.5 182,-743.5 182,-749.5 176,-755.5 170,-755.5 170,-755.5 12,-755.5 12,-755.5 6,-755.5 0,-749.5 0,-743.5 0,-743.5 0,-658.5 0,-658.5 0,-652.5 6,-646.5 12,-646.5"/>
<text text-anchor="middle" x="91" y="-740.3" font-family="Times,serif" font-size="14.00">DocumentProcessesController</text>
<polyline fill="none" stroke="black" points="0,-732.5 182,-732.5 "/>
<polyline fill="none" stroke="black" points="0,-708.5 182,-708.5 "/>
<polyline fill="none" stroke="black" points="0,-684.5 182,-684.5 "/>
<text text-anchor="start" x="8" y="-669.3" font-family="Times,serif" font-size="14.00">_layout</text>
<text text-anchor="start" x="8" y="-654.3" font-family="Times,serif" font-size="14.00">document_process_params</text>
</g>
<!-- GlobalSearchsController -->
<g id="node8" class="node"><title>GlobalSearchsController</title>
<path fill="none" stroke="black" d="M165,-68.5C165,-68.5 292,-68.5 292,-68.5 298,-68.5 304,-74.5 304,-80.5 304,-80.5 304,-150.5 304,-150.5 304,-156.5 298,-162.5 292,-162.5 292,-162.5 165,-162.5 165,-162.5 159,-162.5 153,-156.5 153,-150.5 153,-150.5 153,-80.5 153,-80.5 153,-74.5 159,-68.5 165,-68.5"/>
<text text-anchor="middle" x="228.5" y="-147.3" font-family="Times,serif" font-size="14.00">GlobalSearchsController</text>
<polyline fill="none" stroke="black" points="153,-139.5 304,-139.5 "/>
<polyline fill="none" stroke="black" points="153,-115.5 304,-115.5 "/>
<polyline fill="none" stroke="black" points="153,-91.5 304,-91.5 "/>
<text text-anchor="start" x="161" y="-76.3" font-family="Times,serif" font-size="14.00">_layout</text>
</g>
<!-- NotificationsController -->
<g id="node9" class="node"><title>NotificationsController</title>
<path fill="none" stroke="black" d="M454,-510.5C454,-510.5 650,-510.5 650,-510.5 656,-510.5 662,-516.5 662,-522.5 662,-522.5 662,-696.5 662,-696.5 662,-702.5 656,-708.5 650,-708.5 650,-708.5 454,-708.5 454,-708.5 448,-708.5 442,-702.5 442,-696.5 442,-696.5 442,-522.5 442,-522.5 442,-516.5 448,-510.5 454,-510.5"/>
<text text-anchor="middle" x="552" y="-693.3" font-family="Times,serif" font-size="14.00">NotificationsController</text>
<polyline fill="none" stroke="black" points="442,-685.5 662,-685.5 "/>
<text text-anchor="start" x="450" y="-670.3" font-family="Times,serif" font-size="14.00">checkout</text>
<text text-anchor="start" x="450" y="-655.3" font-family="Times,serif" font-size="14.00">delete_all</text>
<text text-anchor="start" x="450" y="-640.3" font-family="Times,serif" font-size="14.00">index</text>
<text text-anchor="start" x="450" y="-625.3" font-family="Times,serif" font-size="14.00">notification</text>
<text text-anchor="start" x="450" y="-610.3" font-family="Times,serif" font-size="14.00">read_all</text>
<text text-anchor="start" x="450" y="-595.3" font-family="Times,serif" font-size="14.00">show</text>
<text text-anchor="start" x="450" y="-580.3" font-family="Times,serif" font-size="14.00">vencimento</text>
<polyline fill="none" stroke="black" points="442,-572.5 662,-572.5 "/>
<polyline fill="none" stroke="black" points="442,-548.5 662,-548.5 "/>
<text text-anchor="start" x="450" y="-533.3" font-family="Times,serif" font-size="14.00">_layout</text>
<text text-anchor="start" x="450" y="-518.3" font-family="Times,serif" font-size="14.00">get_current_user_unread_notification</text>
</g>
<!-- FoldersController -->
<g id="node10" class="node"><title>FoldersController</title>
<path fill="none" stroke="black" d="M301,-663.5C301,-663.5 390,-663.5 390,-663.5 396,-663.5 402,-669.5 402,-675.5 402,-675.5 402,-774.5 402,-774.5 402,-780.5 396,-786.5 390,-786.5 390,-786.5 301,-786.5 301,-786.5 295,-786.5 289,-780.5 289,-774.5 289,-774.5 289,-675.5 289,-675.5 289,-669.5 295,-663.5 301,-663.5"/>
<text text-anchor="middle" x="345.5" y="-771.3" font-family="Times,serif" font-size="14.00">FoldersController</text>
<polyline fill="none" stroke="black" points="289,-763.5 402,-763.5 "/>
<text text-anchor="start" x="297" y="-748.3" font-family="Times,serif" font-size="14.00">new</text>
<text text-anchor="start" x="297" y="-733.3" font-family="Times,serif" font-size="14.00">show</text>
<polyline fill="none" stroke="black" points="289,-725.5 402,-725.5 "/>
<polyline fill="none" stroke="black" points="289,-701.5 402,-701.5 "/>
<text text-anchor="start" x="297" y="-686.3" font-family="Times,serif" font-size="14.00">_layout</text>
<text text-anchor="start" x="297" y="-671.3" font-family="Times,serif" font-size="14.00">folder_params</text>
</g>
<!-- UserGroupsController -->
<g id="node11" class="node"><title>UserGroupsController</title>
<path fill="none" stroke="black" d="M63,-357.5C63,-357.5 176,-357.5 176,-357.5 182,-357.5 188,-363.5 188,-369.5 188,-369.5 188,-484.5 188,-484.5 188,-490.5 182,-496.5 176,-496.5 176,-496.5 63,-496.5 63,-496.5 57,-496.5 51,-490.5 51,-484.5 51,-484.5 51,-369.5 51,-369.5 51,-363.5 57,-357.5 63,-357.5"/>
<text text-anchor="middle" x="119.5" y="-481.3" font-family="Times,serif" font-size="14.00">UserGroupsController</text>
<polyline fill="none" stroke="black" points="51,-473.5 188,-473.5 "/>
<polyline fill="none" stroke="black" points="51,-449.5 188,-449.5 "/>
<polyline fill="none" stroke="black" points="51,-425.5 188,-425.5 "/>
<text text-anchor="start" x="59" y="-410.3" font-family="Times,serif" font-size="14.00">_layout</text>
<text text-anchor="start" x="59" y="-395.3" font-family="Times,serif" font-size="14.00">save_permissions</text>
<text text-anchor="start" x="59" y="-380.3" font-family="Times,serif" font-size="14.00">set_user_group</text>
<text text-anchor="start" x="59" y="-365.3" font-family="Times,serif" font-size="14.00">user_group_params</text>
</g>
<!-- UsersController -->
<g id="node12" class="node"><title>UsersController</title>
<path fill="none" stroke="black" d="M352,-0.5C352,-0.5 431,-0.5 431,-0.5 437,-0.5 443,-6.5 443,-12.5 443,-12.5 443,-96.5 443,-96.5 443,-102.5 437,-108.5 431,-108.5 431,-108.5 352,-108.5 352,-108.5 346,-108.5 340,-102.5 340,-96.5 340,-96.5 340,-12.5 340,-12.5 340,-6.5 346,-0.5 352,-0.5"/>
<text text-anchor="middle" x="391.5" y="-93.3" font-family="Times,serif" font-size="14.00">UsersController</text>
<polyline fill="none" stroke="black" points="340,-85.5 443,-85.5 "/>
<text text-anchor="start" x="348" y="-70.3" font-family="Times,serif" font-size="14.00">dashboard</text>
<polyline fill="none" stroke="black" points="340,-62.5 443,-62.5 "/>
<polyline fill="none" stroke="black" points="340,-38.5 443,-38.5 "/>
<text text-anchor="start" x="348" y="-23.3" font-family="Times,serif" font-size="14.00">_layout</text>
<text text-anchor="start" x="348" y="-8.3" font-family="Times,serif" font-size="14.00">user_params</text>
</g>
<!-- CheckinsController -->
<g id="node13" class="node"><title>CheckinsController</title>
<path fill="none" stroke="black" d="M12,-68.5C12,-68.5 110,-68.5 110,-68.5 116,-68.5 122,-74.5 122,-80.5 122,-80.5 122,-179.5 122,-179.5 122,-185.5 116,-191.5 110,-191.5 110,-191.5 12,-191.5 12,-191.5 6,-191.5 0,-185.5 0,-179.5 0,-179.5 0,-80.5 0,-80.5 0,-74.5 6,-68.5 12,-68.5"/>
<text text-anchor="middle" x="61" y="-176.3" font-family="Times,serif" font-size="14.00">CheckinsController</text>
<polyline fill="none" stroke="black" points="0,-168.5 122,-168.5 "/>
<text text-anchor="start" x="8" y="-153.3" font-family="Times,serif" font-size="14.00">create</text>
<text text-anchor="start" x="8" y="-138.3" font-family="Times,serif" font-size="14.00">new</text>
<polyline fill="none" stroke="black" points="0,-130.5 122,-130.5 "/>
<polyline fill="none" stroke="black" points="0,-106.5 122,-106.5 "/>
<text text-anchor="start" x="8" y="-91.3" font-family="Times,serif" font-size="14.00">_layout</text>
<text text-anchor="start" x="8" y="-76.3" font-family="Times,serif" font-size="14.00">checkin_params</text>
</g>
<!-- DocumentTypesController -->
<g id="node14" class="node"><title>DocumentTypesController</title>
<path fill="none" stroke="black" d="M29,-221.5C29,-221.5 167,-221.5 167,-221.5 173,-221.5 179,-227.5 179,-233.5 179,-233.5 179,-318.5 179,-318.5 179,-324.5 173,-330.5 167,-330.5 167,-330.5 29,-330.5 29,-330.5 23,-330.5 17,-324.5 17,-318.5 17,-318.5 17,-233.5 17,-233.5 17,-227.5 23,-221.5 29,-221.5"/>
<text text-anchor="middle" x="98" y="-315.3" font-family="Times,serif" font-size="14.00">DocumentTypesController</text>
<polyline fill="none" stroke="black" points="17,-307.5 179,-307.5 "/>
<polyline fill="none" stroke="black" points="17,-283.5 179,-283.5 "/>
<polyline fill="none" stroke="black" points="17,-259.5 179,-259.5 "/>
<text text-anchor="start" x="25" y="-244.3" font-family="Times,serif" font-size="14.00">_layout</text>
<text text-anchor="start" x="25" y="-229.3" font-family="Times,serif" font-size="14.00">document_type_params</text>
</g>
</g>
</svg>
