<?xml version="1.0" encoding="UTF-8" standalone="no"?>
<!DOCTYPE svg PUBLIC "-//W3C//DTD SVG 1.1//EN"
 "http://www.w3.org/Graphics/SVG/1.1/DTD/svg11.dtd">
<!-- Generated by graphviz version 2.36.0 (20140111.2315)
 -->
<!-- Title: models_diagram Pages: 1 -->
<svg width="1399pt" height="1006pt"
 viewBox="0.00 0.00 1399.00 1006.00" xmlns="http://www.w3.org/2000/svg" xmlns:xlink="http://www.w3.org/1999/xlink">
<g id="graph0" class="graph" transform="scale(1 1) rotate(0) translate(4 1002)">
<title>models_diagram</title>
<polygon fill="white" stroke="none" points="-4,4 -4,-1002 1395,-1002 1395,4 -4,4"/>
<!-- _diagram_info -->
<g id="node1" class="node"><title>_diagram_info</title>
<text text-anchor="start" x="8" y="-863.6" font-family="Times,serif" font-size="13.00">Models diagram</text>
<text text-anchor="start" x="8" y="-849.6" font-family="Times,serif" font-size="13.00">Date: Abr 26 2015 &#45; 19:01</text>
<text text-anchor="start" x="8" y="-835.6" font-family="Times,serif" font-size="13.00">Migration version: 20150424151228</text>
<text text-anchor="start" x="8" y="-821.6" font-family="Times,serif" font-size="13.00">Generated by RailRoady 1.3.0</text>
<text text-anchor="start" x="8" y="-807.6" font-family="Times,serif" font-size="13.00">http://railroady.prestonlee.com</text>
</g>
<!-- DocumentType -->
<g id="node2" class="node"><title>DocumentType</title>
<path fill="none" stroke="black" d="M244.5,-793.5C244.5,-793.5 351.5,-793.5 351.5,-793.5 357.5,-793.5 363.5,-799.5 363.5,-805.5 363.5,-805.5 363.5,-872.5 363.5,-872.5 363.5,-878.5 357.5,-884.5 351.5,-884.5 351.5,-884.5 244.5,-884.5 244.5,-884.5 238.5,-884.5 232.5,-878.5 232.5,-872.5 232.5,-872.5 232.5,-805.5 232.5,-805.5 232.5,-799.5 238.5,-793.5 244.5,-793.5"/>
<text text-anchor="middle" x="298" y="-869.3" font-family="Times,serif" font-size="14.00">DocumentType</text>
<polyline fill="none" stroke="black" points="232.5,-861.5 363.5,-861.5 "/>
<text text-anchor="start" x="240.5" y="-846.3" font-family="Times,serif" font-size="14.00">id :integer</text>
<text text-anchor="start" x="240.5" y="-831.3" font-family="Times,serif" font-size="14.00">name :string</text>
<text text-anchor="start" x="240.5" y="-816.3" font-family="Times,serif" font-size="14.00">created_at :datetime</text>
<text text-anchor="start" x="240.5" y="-801.3" font-family="Times,serif" font-size="14.00">updated_at :datetime</text>
</g>
<!-- DocumentProcess -->
<g id="node4" class="node"><title>DocumentProcess</title>
<path fill="none" stroke="black" d="M150.5,-438C150.5,-438 257.5,-438 257.5,-438 263.5,-438 269.5,-444 269.5,-450 269.5,-450 269.5,-532 269.5,-532 269.5,-538 263.5,-544 257.5,-544 257.5,-544 150.5,-544 150.5,-544 144.5,-544 138.5,-538 138.5,-532 138.5,-532 138.5,-450 138.5,-450 138.5,-444 144.5,-438 150.5,-438"/>
<text text-anchor="middle" x="204" y="-528.8" font-family="Times,serif" font-size="14.00">DocumentProcess</text>
<polyline fill="none" stroke="black" points="138.5,-521 269.5,-521 "/>
<text text-anchor="start" x="146.5" y="-505.8" font-family="Times,serif" font-size="14.00">id :integer</text>
<text text-anchor="start" x="146.5" y="-490.8" font-family="Times,serif" font-size="14.00">name :string</text>
<text text-anchor="start" x="146.5" y="-475.8" font-family="Times,serif" font-size="14.00">created_at :datetime</text>
<text text-anchor="start" x="146.5" y="-460.8" font-family="Times,serif" font-size="14.00">updated_at :datetime</text>
<text text-anchor="start" x="146.5" y="-445.8" font-family="Times,serif" font-size="14.00">status :integer</text>
</g>
<!-- DocumentType&#45;&gt;DocumentProcess -->
<g id="edge3" class="edge"><title>DocumentType&#45;&gt;DocumentProcess</title>
<path fill="none" stroke="#2b34b0" d="M283.261,-783.746C266.334,-721.443 238.62,-619.433 220.853,-554.032"/>
<polygon fill="#2b34b0" stroke="#2b34b0" points="283.282,-783.825 281.561,-794.655 284.593,-788.65 285.904,-793.475 285.904,-793.475 285.904,-793.475 284.593,-788.65 290.246,-792.295 283.282,-783.825 283.282,-783.825"/>
<polygon fill="#2b34b0" stroke="#2b34b0" points="220.819,-553.91 222.54,-543.08 219.509,-549.084 218.198,-544.259 218.198,-544.259 218.198,-544.259 219.509,-549.084 213.855,-545.439 220.819,-553.91 220.819,-553.91"/>
</g>
<!-- Document -->
<g id="node6" class="node"><title>Document</title>
<path fill="none" stroke="black" d="M545.5,-340.5C545.5,-340.5 700.5,-340.5 700.5,-340.5 706.5,-340.5 712.5,-346.5 712.5,-352.5 712.5,-352.5 712.5,-629.5 712.5,-629.5 712.5,-635.5 706.5,-641.5 700.5,-641.5 700.5,-641.5 545.5,-641.5 545.5,-641.5 539.5,-641.5 533.5,-635.5 533.5,-629.5 533.5,-629.5 533.5,-352.5 533.5,-352.5 533.5,-346.5 539.5,-340.5 545.5,-340.5"/>
<text text-anchor="middle" x="623" y="-626.3" font-family="Times,serif" font-size="14.00">Document</text>
<polyline fill="none" stroke="black" points="533.5,-618.5 712.5,-618.5 "/>
<text text-anchor="start" x="541.5" y="-603.3" font-family="Times,serif" font-size="14.00">id :integer</text>
<text text-anchor="start" x="541.5" y="-588.3" font-family="Times,serif" font-size="14.00">name :string</text>
<text text-anchor="start" x="541.5" y="-573.3" font-family="Times,serif" font-size="14.00">date_validity :date</text>
<text text-anchor="start" x="541.5" y="-558.3" font-family="Times,serif" font-size="14.00">checkout :boolean</text>
<text text-anchor="start" x="541.5" y="-543.3" font-family="Times,serif" font-size="14.00">user_id :integer</text>
<text text-anchor="start" x="541.5" y="-528.3" font-family="Times,serif" font-size="14.00">document_type_id :integer</text>
<text text-anchor="start" x="541.5" y="-513.3" font-family="Times,serif" font-size="14.00">folder_id :integer</text>
<text text-anchor="start" x="541.5" y="-498.3" font-family="Times,serif" font-size="14.00">created_at :datetime</text>
<text text-anchor="start" x="541.5" y="-483.3" font-family="Times,serif" font-size="14.00">updated_at :datetime</text>
<text text-anchor="start" x="541.5" y="-468.3" font-family="Times,serif" font-size="14.00">arquivo_file_name :string</text>
<text text-anchor="start" x="541.5" y="-453.3" font-family="Times,serif" font-size="14.00">arquivo_content_type :string</text>
<text text-anchor="start" x="541.5" y="-438.3" font-family="Times,serif" font-size="14.00">arquivo_file_size :integer</text>
<text text-anchor="start" x="541.5" y="-423.3" font-family="Times,serif" font-size="14.00">arquivo_updated_at :datetime</text>
<text text-anchor="start" x="541.5" y="-408.3" font-family="Times,serif" font-size="14.00">status :integer</text>
<text text-anchor="start" x="541.5" y="-393.3" font-family="Times,serif" font-size="14.00">version :integer</text>
<text text-anchor="start" x="541.5" y="-378.3" font-family="Times,serif" font-size="14.00">date_notification :date</text>
<text text-anchor="start" x="541.5" y="-363.3" font-family="Times,serif" font-size="14.00">notification_period :integer</text>
<text text-anchor="start" x="541.5" y="-348.3" font-family="Times,serif" font-size="14.00">tag :text</text>
</g>
<!-- DocumentType&#45;&gt;Document -->
<g id="edge1" class="edge"><title>DocumentType&#45;&gt;Document</title>
<path fill="none" stroke="#97bfa8" d="M345.367,-787.572C392.539,-737.352 466.327,-658.797 525.978,-595.291"/>
<ellipse fill="none" stroke="#97bfa8" cx="342.561" cy="-790.559" rx="4.00002" ry="4.00002"/>
<polygon fill="#97bfa8" stroke="#97bfa8" points="526.333,-594.913 536.46,-590.705 529.756,-591.268 533.18,-587.624 533.18,-587.624 533.18,-587.624 529.756,-591.268 529.9,-584.543 526.333,-594.913 526.333,-594.913"/>
</g>
<!-- DocumentTypesDocumentProcess -->
<g id="node11" class="node"><title>DocumentTypesDocumentProcess</title>
<path fill="none" stroke="black" d="M113.5,-106C113.5,-106 294.5,-106 294.5,-106 300.5,-106 306.5,-112 306.5,-118 306.5,-118 306.5,-170 306.5,-170 306.5,-176 300.5,-182 294.5,-182 294.5,-182 113.5,-182 113.5,-182 107.5,-182 101.5,-176 101.5,-170 101.5,-170 101.5,-118 101.5,-118 101.5,-112 107.5,-106 113.5,-106"/>
<text text-anchor="middle" x="204" y="-166.8" font-family="Times,serif" font-size="14.00">DocumentTypesDocumentProcess</text>
<polyline fill="none" stroke="black" points="101.5,-159 306.5,-159 "/>
<text text-anchor="start" x="109.5" y="-143.8" font-family="Times,serif" font-size="14.00">id :integer</text>
<text text-anchor="start" x="109.5" y="-128.8" font-family="Times,serif" font-size="14.00">document_type_id :integer</text>
<text text-anchor="start" x="109.5" y="-113.8" font-family="Times,serif" font-size="14.00">document_process_id :integer</text>
</g>
<!-- DocumentType&#45;&gt;DocumentTypesDocumentProcess -->
<g id="edge2" class="edge"><title>DocumentType&#45;&gt;DocumentTypesDocumentProcess</title>
<path fill="none" stroke="#0788d0" d="M301.381,-785.454C306.06,-693.9 310.599,-499.652 278,-340 267.248,-287.343 244.089,-230.198 226.524,-191.468"/>
<ellipse fill="none" stroke="#0788d0" cx="301.169" cy="-789.465" rx="4" ry="4"/>
<polygon fill="#0788d0" stroke="#0788d0" points="226.364,-191.12 226.279,-180.154 224.277,-186.576 222.19,-182.032 222.19,-182.032 222.19,-182.032 224.277,-186.576 218.101,-183.911 226.364,-191.12 226.364,-191.12"/>
</g>
<!-- Notification -->
<g id="node3" class="node"><title>Notification</title>
<path fill="none" stroke="black" d="M863.5,-68.5C863.5,-68.5 972.5,-68.5 972.5,-68.5 978.5,-68.5 984.5,-74.5 984.5,-80.5 984.5,-80.5 984.5,-207.5 984.5,-207.5 984.5,-213.5 978.5,-219.5 972.5,-219.5 972.5,-219.5 863.5,-219.5 863.5,-219.5 857.5,-219.5 851.5,-213.5 851.5,-207.5 851.5,-207.5 851.5,-80.5 851.5,-80.5 851.5,-74.5 857.5,-68.5 863.5,-68.5"/>
<text text-anchor="middle" x="918" y="-204.3" font-family="Times,serif" font-size="14.00">Notification</text>
<polyline fill="none" stroke="black" points="851.5,-196.5 984.5,-196.5 "/>
<text text-anchor="start" x="859.5" y="-181.3" font-family="Times,serif" font-size="14.00">id :integer</text>
<text text-anchor="start" x="859.5" y="-166.3" font-family="Times,serif" font-size="14.00">description :text</text>
<text text-anchor="start" x="859.5" y="-151.3" font-family="Times,serif" font-size="14.00">user_id :integer</text>
<text text-anchor="start" x="859.5" y="-136.3" font-family="Times,serif" font-size="14.00">autor_id :integer</text>
<text text-anchor="start" x="859.5" y="-121.3" font-family="Times,serif" font-size="14.00">created_at :datetime</text>
<text text-anchor="start" x="859.5" y="-106.3" font-family="Times,serif" font-size="14.00">updated_at :datetime</text>
<text text-anchor="start" x="859.5" y="-91.3" font-family="Times,serif" font-size="14.00">read :boolean</text>
<text text-anchor="start" x="859.5" y="-76.3" font-family="Times,serif" font-size="14.00">document_id :integer</text>
</g>
<!-- DocumentProcess&#45;&gt;DocumentTypesDocumentProcess -->
<g id="edge4" class="edge"><title>DocumentProcess&#45;&gt;DocumentTypesDocumentProcess</title>
<path fill="none" stroke="#f0477e" d="M204,-429.924C204,-362.374 204,-254.076 204,-192.277"/>
<ellipse fill="none" stroke="#f0477e" cx="204" cy="-433.976" rx="4" ry="4"/>
<polygon fill="#f0477e" stroke="#f0477e" points="204,-192.035 208.5,-182.035 204,-187.035 204,-182.035 204,-182.035 204,-182.035 204,-187.035 199.5,-182.035 204,-192.035 204,-192.035"/>
</g>
<!-- Folder -->
<g id="node5" class="node"><title>Folder</title>
<path fill="none" stroke="black" d="M560.5,-771C560.5,-771 685.5,-771 685.5,-771 691.5,-771 697.5,-777 697.5,-783 697.5,-783 697.5,-895 697.5,-895 697.5,-901 691.5,-907 685.5,-907 685.5,-907 560.5,-907 560.5,-907 554.5,-907 548.5,-901 548.5,-895 548.5,-895 548.5,-783 548.5,-783 548.5,-777 554.5,-771 560.5,-771"/>
<text text-anchor="middle" x="623" y="-891.8" font-family="Times,serif" font-size="14.00">Folder</text>
<polyline fill="none" stroke="black" points="548.5,-884 697.5,-884 "/>
<text text-anchor="start" x="556.5" y="-868.8" font-family="Times,serif" font-size="14.00">id :integer</text>
<text text-anchor="start" x="556.5" y="-853.8" font-family="Times,serif" font-size="14.00">name :string</text>
<text text-anchor="start" x="556.5" y="-838.8" font-family="Times,serif" font-size="14.00">parent_id :integer</text>
<text text-anchor="start" x="556.5" y="-823.8" font-family="Times,serif" font-size="14.00">created_at :datetime</text>
<text text-anchor="start" x="556.5" y="-808.8" font-family="Times,serif" font-size="14.00">updated_at :datetime</text>
<text text-anchor="start" x="556.5" y="-793.8" font-family="Times,serif" font-size="14.00">process_type_id :integer</text>
<text text-anchor="start" x="556.5" y="-778.8" font-family="Times,serif" font-size="14.00">user_id :integer</text>
</g>
<!-- Folder&#45;&gt;Folder -->
<g id="edge5" class="edge"><title>Folder&#45;&gt;Folder</title>
<path fill="none" stroke="#729a39" d="M705.568,-851.226C711.424,-848.448 715,-844.372 715,-839 715,-834.212 712.159,-830.454 707.395,-827.726"/>
<ellipse fill="none" stroke="#729a39" cx="701.51" cy="-852.604" rx="4.00001" ry="4.00001"/>
<polygon fill="#729a39" stroke="#729a39" points="707.089,-827.612 699.299,-819.894 702.406,-825.861 697.723,-824.109 697.723,-824.109 697.723,-824.109 702.406,-825.861 696.146,-828.324 707.089,-827.612 707.089,-827.612"/>
<text text-anchor="middle" x="737.5" y="-835.3" font-family="Times,serif" font-size="14.00">children</text>
</g>
<!-- Folder&#45;&gt;Folder -->
<g id="edge7" class="edge"><title>Folder&#45;&gt;Folder</title>
<path fill="none" stroke="#439bed" d="M705.53,-872.375C735.074,-872.305 760,-861.18 760,-839 760,-817.386 736.331,-806.27 707.783,-805.652"/>
<ellipse fill="none" stroke="#439bed" cx="701.511" cy="-872.251" rx="4" ry="4"/>
<polygon fill="#439bed" stroke="#439bed" points="707.511,-805.658 697.417,-801.373 702.512,-805.765 697.513,-805.871 697.513,-805.871 697.513,-805.871 702.512,-805.765 697.609,-810.37 707.511,-805.658 707.511,-805.658"/>
</g>
<!-- Folder&#45;&gt;Document -->
<g id="edge6" class="edge"><title>Folder&#45;&gt;Document</title>
<path fill="none" stroke="#06e41b" d="M623,-762.506C623,-729.937 623,-690.521 623,-651.973"/>
<ellipse fill="none" stroke="#06e41b" cx="623" cy="-766.877" rx="4" ry="4"/>
<polygon fill="#06e41b" stroke="#06e41b" points="623,-651.665 627.5,-641.665 623,-646.665 623,-641.665 623,-641.665 623,-641.665 623,-646.665 618.5,-641.665 623,-651.665 623,-651.665"/>
</g>
<!-- Document&#45;&gt;Notification -->
<g id="edge11" class="edge"><title>Document&#45;&gt;Notification</title>
<path fill="none" stroke="#605503" d="M718.812,-414.151C759.877,-378.642 806.462,-334.062 842,-288 855.988,-269.87 868.768,-248.801 879.693,-228.499"/>
<ellipse fill="none" stroke="#605503" cx="715.568" cy="-416.939" rx="4.00002" ry="4.00002"/>
<polygon fill="#605503" stroke="#605503" points="879.75,-228.392 888.398,-221.65 882.084,-223.97 884.419,-219.549 884.419,-219.549 884.419,-219.549 882.084,-223.97 880.44,-217.448 879.75,-228.392 879.75,-228.392"/>
</g>
<!-- DocumentHistory -->
<g id="node10" class="node"><title>DocumentHistory</title>
<path fill="none" stroke="black" d="M712.5,-83.5C712.5,-83.5 821.5,-83.5 821.5,-83.5 827.5,-83.5 833.5,-89.5 833.5,-95.5 833.5,-95.5 833.5,-192.5 833.5,-192.5 833.5,-198.5 827.5,-204.5 821.5,-204.5 821.5,-204.5 712.5,-204.5 712.5,-204.5 706.5,-204.5 700.5,-198.5 700.5,-192.5 700.5,-192.5 700.5,-95.5 700.5,-95.5 700.5,-89.5 706.5,-83.5 712.5,-83.5"/>
<text text-anchor="middle" x="767" y="-189.3" font-family="Times,serif" font-size="14.00">DocumentHistory</text>
<polyline fill="none" stroke="black" points="700.5,-181.5 833.5,-181.5 "/>
<text text-anchor="start" x="708.5" y="-166.3" font-family="Times,serif" font-size="14.00">id :integer</text>
<text text-anchor="start" x="708.5" y="-151.3" font-family="Times,serif" font-size="14.00">user_id :integer</text>
<text text-anchor="start" x="708.5" y="-136.3" font-family="Times,serif" font-size="14.00">document_id :integer</text>
<text text-anchor="start" x="708.5" y="-121.3" font-family="Times,serif" font-size="14.00">action :string</text>
<text text-anchor="start" x="708.5" y="-106.3" font-family="Times,serif" font-size="14.00">created_at :datetime</text>
<text text-anchor="start" x="708.5" y="-91.3" font-family="Times,serif" font-size="14.00">updated_at :datetime</text>
</g>
<!-- Document&#45;&gt;DocumentHistory -->
<g id="edge9" class="edge"><title>Document&#45;&gt;DocumentHistory</title>
<path fill="none" stroke="#42a8f4" d="M688.595,-332.844C705.968,-291.221 723.843,-248.397 738.129,-214.169"/>
<ellipse fill="none" stroke="#42a8f4" cx="686.968" cy="-336.742" rx="4.00001" ry="4.00001"/>
<polygon fill="#42a8f4" stroke="#42a8f4" points="738.209,-213.979 746.213,-206.484 740.135,-209.365 742.061,-204.751 742.061,-204.751 742.061,-204.751 740.135,-209.365 737.908,-203.018 738.209,-213.979 738.209,-213.979"/>
</g>
<!-- Checkin -->
<g id="node12" class="node"><title>Checkin</title>
<path fill="none" stroke="black" d="M336.5,-1C336.5,-1 491.5,-1 491.5,-1 497.5,-1 503.5,-7 503.5,-13 503.5,-13 503.5,-275 503.5,-275 503.5,-281 497.5,-287 491.5,-287 491.5,-287 336.5,-287 336.5,-287 330.5,-287 324.5,-281 324.5,-275 324.5,-275 324.5,-13 324.5,-13 324.5,-7 330.5,-1 336.5,-1"/>
<text text-anchor="middle" x="414" y="-271.8" font-family="Times,serif" font-size="14.00">Checkin</text>
<polyline fill="none" stroke="black" points="324.5,-264 503.5,-264 "/>
<text text-anchor="start" x="332.5" y="-248.8" font-family="Times,serif" font-size="14.00">id :integer</text>
<text text-anchor="start" x="332.5" y="-233.8" font-family="Times,serif" font-size="14.00">name :string</text>
<text text-anchor="start" x="332.5" y="-218.8" font-family="Times,serif" font-size="14.00">date_validity :date</text>
<text text-anchor="start" x="332.5" y="-203.8" font-family="Times,serif" font-size="14.00">checkout :boolean</text>
<text text-anchor="start" x="332.5" y="-188.8" font-family="Times,serif" font-size="14.00">notification_period :string</text>
<text text-anchor="start" x="332.5" y="-173.8" font-family="Times,serif" font-size="14.00">user_id :integer</text>
<text text-anchor="start" x="332.5" y="-158.8" font-family="Times,serif" font-size="14.00">document_type_id :integer</text>
<text text-anchor="start" x="332.5" y="-143.8" font-family="Times,serif" font-size="14.00">folder_id :integer</text>
<text text-anchor="start" x="332.5" y="-128.8" font-family="Times,serif" font-size="14.00">document_id :integer</text>
<text text-anchor="start" x="332.5" y="-113.8" font-family="Times,serif" font-size="14.00">status :integer</text>
<text text-anchor="start" x="332.5" y="-98.8" font-family="Times,serif" font-size="14.00">created_at :datetime</text>
<text text-anchor="start" x="332.5" y="-83.8" font-family="Times,serif" font-size="14.00">updated_at :datetime</text>
<text text-anchor="start" x="332.5" y="-68.8" font-family="Times,serif" font-size="14.00">arquivo_file_name :string</text>
<text text-anchor="start" x="332.5" y="-53.8" font-family="Times,serif" font-size="14.00">arquivo_content_type :string</text>
<text text-anchor="start" x="332.5" y="-38.8" font-family="Times,serif" font-size="14.00">arquivo_file_size :integer</text>
<text text-anchor="start" x="332.5" y="-23.8" font-family="Times,serif" font-size="14.00">arquivo_updated_at :datetime</text>
<text text-anchor="start" x="332.5" y="-8.8" font-family="Times,serif" font-size="14.00">tag :text</text>
</g>
<!-- Document&#45;&gt;Checkin -->
<g id="edge10" class="edge"><title>Document&#45;&gt;Checkin</title>
<path fill="none" stroke="#bd470e" d="M529.291,-335.313C521.303,-322.128 513.231,-308.802 505.262,-295.648"/>
<ellipse fill="none" stroke="#bd470e" cx="531.383" cy="-338.766" rx="4.00002" ry="4.00002"/>
<polygon fill="#bd470e" stroke="#bd470e" points="505.224,-295.585 503.892,-284.701 502.633,-291.309 500.043,-287.032 500.043,-287.032 500.043,-287.032 502.633,-291.309 496.194,-289.364 505.224,-295.585 505.224,-295.585"/>
</g>
<!-- Document::Version -->
<g id="node16" class="node"><title>Document::Version</title>
<ellipse fill="none" stroke="black" cx="602" cy="-144" rx="80.389" ry="18"/>
<text text-anchor="middle" x="602" y="-140.3" font-family="Times,serif" font-size="14.00">Document::Version</text>
</g>
<!-- Document&#45;&gt;Document::Version -->
<g id="edge8" class="edge"><title>Document&#45;&gt;Document::Version</title>
<path fill="none" stroke="#cce986" d="M613.395,-332.203C609.68,-271.167 605.814,-207.658 603.676,-172.541"/>
<ellipse fill="none" stroke="#cce986" cx="613.653" cy="-336.441" rx="4" ry="4"/>
<polygon fill="#cce986" stroke="#cce986" points="603.653,-172.158 607.537,-161.903 603.349,-167.167 603.046,-162.176 603.046,-162.176 603.046,-162.176 603.349,-167.167 598.554,-162.45 603.653,-172.158 603.653,-172.158"/>
<text text-anchor="middle" x="635" y="-310.3" font-family="Times,serif" font-size="14.00">versions</text>
</g>
<!-- SistemConfiguration -->
<g id="node7" class="node"><title>SistemConfiguration</title>
<path fill="none" stroke="black" d="M1048,-793.5C1048,-793.5 1182,-793.5 1182,-793.5 1188,-793.5 1194,-799.5 1194,-805.5 1194,-805.5 1194,-872.5 1194,-872.5 1194,-878.5 1188,-884.5 1182,-884.5 1182,-884.5 1048,-884.5 1048,-884.5 1042,-884.5 1036,-878.5 1036,-872.5 1036,-872.5 1036,-805.5 1036,-805.5 1036,-799.5 1042,-793.5 1048,-793.5"/>
<text text-anchor="middle" x="1115" y="-869.3" font-family="Times,serif" font-size="14.00">SistemConfiguration</text>
<polyline fill="none" stroke="black" points="1036,-861.5 1194,-861.5 "/>
<text text-anchor="start" x="1044" y="-846.3" font-family="Times,serif" font-size="14.00">id :integer</text>
<text text-anchor="start" x="1044" y="-831.3" font-family="Times,serif" font-size="14.00">notification_period :string</text>
<text text-anchor="start" x="1044" y="-816.3" font-family="Times,serif" font-size="14.00">created_at :datetime</text>
<text text-anchor="start" x="1044" y="-801.3" font-family="Times,serif" font-size="14.00">updated_at :datetime</text>
</g>
<!-- DocumentVersion -->
<g id="node8" class="node"><title>DocumentVersion</title>
<path fill="none" stroke="black" d="M1224.5,-681C1224.5,-681 1379.5,-681 1379.5,-681 1385.5,-681 1391.5,-687 1391.5,-693 1391.5,-693 1391.5,-985 1391.5,-985 1391.5,-991 1385.5,-997 1379.5,-997 1379.5,-997 1224.5,-997 1224.5,-997 1218.5,-997 1212.5,-991 1212.5,-985 1212.5,-985 1212.5,-693 1212.5,-693 1212.5,-687 1218.5,-681 1224.5,-681"/>
<text text-anchor="middle" x="1302" y="-981.8" font-family="Times,serif" font-size="14.00">DocumentVersion</text>
<polyline fill="none" stroke="black" points="1212.5,-974 1391.5,-974 "/>
<text text-anchor="start" x="1220.5" y="-958.8" font-family="Times,serif" font-size="14.00">id :integer</text>
<text text-anchor="start" x="1220.5" y="-943.8" font-family="Times,serif" font-size="14.00">document_id :integer</text>
<text text-anchor="start" x="1220.5" y="-928.8" font-family="Times,serif" font-size="14.00">version :integer</text>
<text text-anchor="start" x="1220.5" y="-913.8" font-family="Times,serif" font-size="14.00">name :string</text>
<text text-anchor="start" x="1220.5" y="-898.8" font-family="Times,serif" font-size="14.00">date_validity :date</text>
<text text-anchor="start" x="1220.5" y="-883.8" font-family="Times,serif" font-size="14.00">checkout :boolean</text>
<text text-anchor="start" x="1220.5" y="-868.8" font-family="Times,serif" font-size="14.00">notification_period :string</text>
<text text-anchor="start" x="1220.5" y="-853.8" font-family="Times,serif" font-size="14.00">user_id :integer</text>
<text text-anchor="start" x="1220.5" y="-838.8" font-family="Times,serif" font-size="14.00">document_type_id :integer</text>
<text text-anchor="start" x="1220.5" y="-823.8" font-family="Times,serif" font-size="14.00">folder_id :integer</text>
<text text-anchor="start" x="1220.5" y="-808.8" font-family="Times,serif" font-size="14.00">created_at :datetime</text>
<text text-anchor="start" x="1220.5" y="-793.8" font-family="Times,serif" font-size="14.00">updated_at :datetime</text>
<text text-anchor="start" x="1220.5" y="-778.8" font-family="Times,serif" font-size="14.00">arquivo_file_name :string</text>
<text text-anchor="start" x="1220.5" y="-763.8" font-family="Times,serif" font-size="14.00">arquivo_content_type :string</text>
<text text-anchor="start" x="1220.5" y="-748.8" font-family="Times,serif" font-size="14.00">arquivo_file_size :integer</text>
<text text-anchor="start" x="1220.5" y="-733.8" font-family="Times,serif" font-size="14.00">arquivo_updated_at :datetime</text>
<text text-anchor="start" x="1220.5" y="-718.8" font-family="Times,serif" font-size="14.00">status :integer</text>
<text text-anchor="start" x="1220.5" y="-703.8" font-family="Times,serif" font-size="14.00">date_notification :date</text>
<text text-anchor="start" x="1220.5" y="-688.8" font-family="Times,serif" font-size="14.00">tag :text</text>
</g>
<!-- UsersUserGroup -->
<g id="node9" class="node"><title>UsersUserGroup</title>
<path fill="none" stroke="black" d="M1180,-106C1180,-106 1296,-106 1296,-106 1302,-106 1308,-112 1308,-118 1308,-118 1308,-170 1308,-170 1308,-176 1302,-182 1296,-182 1296,-182 1180,-182 1180,-182 1174,-182 1168,-176 1168,-170 1168,-170 1168,-118 1168,-118 1168,-112 1174,-106 1180,-106"/>
<text text-anchor="middle" x="1238" y="-166.8" font-family="Times,serif" font-size="14.00">UsersUserGroup</text>
<polyline fill="none" stroke="black" points="1168,-159 1308,-159 "/>
<text text-anchor="start" x="1176" y="-143.8" font-family="Times,serif" font-size="14.00">id :integer</text>
<text text-anchor="start" x="1176" y="-128.8" font-family="Times,serif" font-size="14.00">user_group_id :integer</text>
<text text-anchor="start" x="1176" y="-113.8" font-family="Times,serif" font-size="14.00">user_id :integer</text>
</g>
<!-- User -->
<g id="node13" class="node"><title>User</title>
<path fill="none" stroke="black" d="M830,-718.5C830,-718.5 1006,-718.5 1006,-718.5 1012,-718.5 1018,-724.5 1018,-730.5 1018,-730.5 1018,-947.5 1018,-947.5 1018,-953.5 1012,-959.5 1006,-959.5 1006,-959.5 830,-959.5 830,-959.5 824,-959.5 818,-953.5 818,-947.5 818,-947.5 818,-730.5 818,-730.5 818,-724.5 824,-718.5 830,-718.5"/>
<text text-anchor="middle" x="918" y="-944.3" font-family="Times,serif" font-size="14.00">User</text>
<polyline fill="none" stroke="black" points="818,-936.5 1018,-936.5 "/>
<text text-anchor="start" x="826" y="-921.3" font-family="Times,serif" font-size="14.00">id :integer</text>
<text text-anchor="start" x="826" y="-906.3" font-family="Times,serif" font-size="14.00">name :string</text>
<text text-anchor="start" x="826" y="-891.3" font-family="Times,serif" font-size="14.00">email :string</text>
<text text-anchor="start" x="826" y="-876.3" font-family="Times,serif" font-size="14.00">encrypted_password :string</text>
<text text-anchor="start" x="826" y="-861.3" font-family="Times,serif" font-size="14.00">reset_password_token :string</text>
<text text-anchor="start" x="826" y="-846.3" font-family="Times,serif" font-size="14.00">reset_password_sent_at :datetime</text>
<text text-anchor="start" x="826" y="-831.3" font-family="Times,serif" font-size="14.00">remember_created_at :datetime</text>
<text text-anchor="start" x="826" y="-816.3" font-family="Times,serif" font-size="14.00">sign_in_count :integer</text>
<text text-anchor="start" x="826" y="-801.3" font-family="Times,serif" font-size="14.00">current_sign_in_at :datetime</text>
<text text-anchor="start" x="826" y="-786.3" font-family="Times,serif" font-size="14.00">last_sign_in_at :datetime</text>
<text text-anchor="start" x="826" y="-771.3" font-family="Times,serif" font-size="14.00">current_sign_in_ip :inet</text>
<text text-anchor="start" x="826" y="-756.3" font-family="Times,serif" font-size="14.00">last_sign_in_ip :inet</text>
<text text-anchor="start" x="826" y="-741.3" font-family="Times,serif" font-size="14.00">created_at :datetime</text>
<text text-anchor="start" x="826" y="-726.3" font-family="Times,serif" font-size="14.00">updated_at :datetime</text>
</g>
<!-- User&#45;&gt;Notification -->
<g id="edge12" class="edge"><title>User&#45;&gt;Notification</title>
<path fill="none" stroke="#5bb2bb" d="M918,-710.406C918,-570.582 918,-350.215 918,-230.054"/>
<ellipse fill="none" stroke="#5bb2bb" cx="918" cy="-714.475" rx="4" ry="4"/>
<polygon fill="#5bb2bb" stroke="#5bb2bb" points="918,-229.807 922.5,-219.807 918,-224.807 918,-219.807 918,-219.807 918,-219.807 918,-224.807 913.5,-219.807 918,-229.807 918,-229.807"/>
</g>
<!-- User&#45;&gt;Document -->
<g id="edge13" class="edge"><title>User&#45;&gt;Document</title>
<path fill="none" stroke="#cc40bf" d="M813.912,-711.879C804.844,-701.068 795.78,-690.324 787,-680 765.384,-654.585 741.928,-627.443 719.696,-601.914"/>
<ellipse fill="none" stroke="#cc40bf" cx="816.68" cy="-715.184" rx="4.00002" ry="4.00002"/>
<polygon fill="#cc40bf" stroke="#cc40bf" points="719.41,-601.585 716.232,-591.09 716.125,-597.816 712.839,-594.047 712.839,-594.047 712.839,-594.047 716.125,-597.816 709.447,-597.003 719.41,-601.585 719.41,-601.585"/>
</g>
<!-- User&#45;&gt;UsersUserGroup -->
<g id="edge15" class="edge"><title>User&#45;&gt;UsersUserGroup</title>
<path fill="none" stroke="#0242ce" d="M992.482,-712.1C1003,-700.179 1014.53,-689.153 1027,-680 1073.12,-646.14 1112.14,-684.894 1150,-642 1263.86,-513.014 1254.83,-289.525 1244.44,-192.373"/>
<ellipse fill="none" stroke="#0242ce" cx="989.676" cy="-715.374" rx="4.00002" ry="4.00002"/>
<polygon fill="#0242ce" stroke="#0242ce" points="1244.42,-192.204 1247.78,-181.764 1243.86,-187.235 1243.3,-182.267 1243.3,-182.267 1243.3,-182.267 1243.86,-187.235 1238.83,-182.769 1244.42,-192.204 1244.42,-192.204"/>
</g>
<!-- User&#45;&gt;DocumentHistory -->
<g id="edge14" class="edge"><title>User&#45;&gt;DocumentHistory</title>
<path fill="none" stroke="#e84dba" d="M890.217,-710.491C858.367,-564.32 807.321,-330.048 782.103,-214.314"/>
<ellipse fill="none" stroke="#e84dba" cx="891.105" cy="-714.566" rx="4.00001" ry="4.00001"/>
<polygon fill="#e84dba" stroke="#e84dba" points="782.094,-214.273 784.362,-203.544 781.03,-209.387 779.965,-204.502 779.965,-204.502 779.965,-204.502 781.03,-209.387 775.568,-205.46 782.094,-214.273 782.094,-214.273"/>
</g>
<!-- UserGroup -->
<g id="node14" class="node"><title>UserGroup</title>
<path fill="none" stroke="black" d="M1022.5,-445.5C1022.5,-445.5 1129.5,-445.5 1129.5,-445.5 1135.5,-445.5 1141.5,-451.5 1141.5,-457.5 1141.5,-457.5 1141.5,-524.5 1141.5,-524.5 1141.5,-530.5 1135.5,-536.5 1129.5,-536.5 1129.5,-536.5 1022.5,-536.5 1022.5,-536.5 1016.5,-536.5 1010.5,-530.5 1010.5,-524.5 1010.5,-524.5 1010.5,-457.5 1010.5,-457.5 1010.5,-451.5 1016.5,-445.5 1022.5,-445.5"/>
<text text-anchor="middle" x="1076" y="-521.3" font-family="Times,serif" font-size="14.00">UserGroup</text>
<polyline fill="none" stroke="black" points="1010.5,-513.5 1141.5,-513.5 "/>
<text text-anchor="start" x="1018.5" y="-498.3" font-family="Times,serif" font-size="14.00">id :integer</text>
<text text-anchor="start" x="1018.5" y="-483.3" font-family="Times,serif" font-size="14.00">name :string</text>
<text text-anchor="start" x="1018.5" y="-468.3" font-family="Times,serif" font-size="14.00">created_at :datetime</text>
<text text-anchor="start" x="1018.5" y="-453.3" font-family="Times,serif" font-size="14.00">updated_at :datetime</text>
</g>
<!-- User&#45;&gt;UserGroup -->
<g id="edge16" class="edge"><title>User&#45;&gt;UserGroup</title>
<path fill="none" stroke="#56b3fe" d="M976.822,-709.187C1002.57,-652.805 1031.38,-589.712 1051.29,-546.119"/>
<polygon fill="#56b3fe" stroke="#56b3fe" points="976.75,-709.345 968.502,-716.573 974.673,-713.894 972.596,-718.442 972.596,-718.442 972.596,-718.442 974.673,-713.894 976.689,-720.311 976.75,-709.345 976.75,-709.345"/>
<polygon fill="#56b3fe" stroke="#56b3fe" points="1051.37,-545.945 1059.61,-538.718 1053.44,-541.397 1055.52,-536.849 1055.52,-536.849 1055.52,-536.849 1053.44,-541.397 1051.43,-534.98 1051.37,-545.945 1051.37,-545.945"/>
</g>
<!-- UserGroup&#45;&gt;UsersUserGroup -->
<g id="edge18" class="edge"><title>UserGroup&#45;&gt;UsersUserGroup</title>
<path fill="none" stroke="#9712b6" d="M1100.53,-437.769C1132.05,-370.629 1186.3,-255.104 1216.36,-191.085"/>
<ellipse fill="none" stroke="#9712b6" cx="1098.71" cy="-441.63" rx="4.00002" ry="4.00002"/>
<polygon fill="#9712b6" stroke="#9712b6" points="1216.36,-191.077 1224.69,-183.938 1218.49,-186.551 1220.61,-182.025 1220.61,-182.025 1220.61,-182.025 1218.49,-186.551 1216.54,-180.112 1216.36,-191.077 1216.36,-191.077"/>
</g>
<!-- Permission -->
<g id="node15" class="node"><title>Permission</title>
<path fill="none" stroke="black" d="M1014.5,-91C1014.5,-91 1137.5,-91 1137.5,-91 1143.5,-91 1149.5,-97 1149.5,-103 1149.5,-103 1149.5,-185 1149.5,-185 1149.5,-191 1143.5,-197 1137.5,-197 1137.5,-197 1014.5,-197 1014.5,-197 1008.5,-197 1002.5,-191 1002.5,-185 1002.5,-185 1002.5,-103 1002.5,-103 1002.5,-97 1008.5,-91 1014.5,-91"/>
<text text-anchor="middle" x="1076" y="-181.8" font-family="Times,serif" font-size="14.00">Permission</text>
<polyline fill="none" stroke="black" points="1002.5,-174 1149.5,-174 "/>
<text text-anchor="start" x="1010.5" y="-158.8" font-family="Times,serif" font-size="14.00">id :integer</text>
<text text-anchor="start" x="1010.5" y="-143.8" font-family="Times,serif" font-size="14.00">permission_code :string</text>
<text text-anchor="start" x="1010.5" y="-128.8" font-family="Times,serif" font-size="14.00">user_group_id :integer</text>
<text text-anchor="start" x="1010.5" y="-113.8" font-family="Times,serif" font-size="14.00">created_at :datetime</text>
<text text-anchor="start" x="1010.5" y="-98.8" font-family="Times,serif" font-size="14.00">updated_at :datetime</text>
</g>
<!-- UserGroup&#45;&gt;Permission -->
<g id="edge17" class="edge"><title>UserGroup&#45;&gt;Permission</title>
<path fill="none" stroke="#b895ee" d="M1076,-437.15C1076,-375.351 1076,-273.171 1076,-207.495"/>
<ellipse fill="none" stroke="#b895ee" cx="1076" cy="-441.251" rx="4" ry="4"/>
<polygon fill="#b895ee" stroke="#b895ee" points="1076,-207.28 1080.5,-197.28 1076,-202.28 1076,-197.28 1076,-197.28 1076,-197.28 1076,-202.28 1071.5,-197.28 1076,-207.28 1076,-207.28"/>
</g>
</g>
</svg>
