<?xml version="1.0" encoding="UTF-8" standalone="no"?>
<!DOCTYPE svg PUBLIC "-//W3C//DTD SVG 1.1//EN"
 "http://www.w3.org/Graphics/SVG/1.1/DTD/svg11.dtd">
<!-- Generated by graphviz version 2.36.0 (20140111.2315)
 -->
<!-- Title: models_diagram Pages: 1 -->
<svg width="1235pt" height="248pt"
 viewBox="0.00 0.00 1235.00 248.00" xmlns="http://www.w3.org/2000/svg" xmlns:xlink="http://www.w3.org/1999/xlink">
<g id="graph0" class="graph" transform="scale(1 1) rotate(0) translate(4 244)">
<title>models_diagram</title>
<polygon fill="white" stroke="none" points="-4,4 -4,-244 1231,-244 1231,4 -4,4"/>
<!-- _diagram_info -->
<g id="node1" class="node"><title>_diagram_info</title>
<text text-anchor="start" x="8" y="-225.6" font-family="Times,serif" font-size="13.00">Models diagram</text>
<text text-anchor="start" x="8" y="-211.6" font-family="Times,serif" font-size="13.00">Date: Abr 26 2015 &#45; 19:01</text>
<text text-anchor="start" x="8" y="-197.6" font-family="Times,serif" font-size="13.00">Migration version: 20150424151228</text>
<text text-anchor="start" x="8" y="-183.6" font-family="Times,serif" font-size="13.00">Generated by RailRoady 1.3.0</text>
<text text-anchor="start" x="8" y="-169.6" font-family="Times,serif" font-size="13.00">http://railroady.prestonlee.com</text>
</g>
<!-- DocumentType -->
<g id="node2" class="node"><title>DocumentType</title>
<ellipse fill="none" stroke="black" cx="298" cy="-201" rx="65.4659" ry="18"/>
<text text-anchor="middle" x="298" y="-197.3" font-family="Times,serif" font-size="14.00">DocumentType</text>
</g>
<!-- DocumentProcess -->
<g id="node4" class="node"><title>DocumentProcess</title>
<ellipse fill="none" stroke="black" cx="195" cy="-106" rx="74.6146" ry="18"/>
<text text-anchor="middle" x="195" y="-102.3" font-family="Times,serif" font-size="14.00">DocumentProcess</text>
</g>
<!-- DocumentType&#45;&gt;DocumentProcess -->
<g id="edge3" class="edge"><title>DocumentType&#45;&gt;DocumentProcess</title>
<path fill="none" stroke="#06430f" d="M272.119,-176.632C256.497,-162.527 236.655,-144.611 221.009,-130.484"/>
<polygon fill="#06430f" stroke="#06430f" points="272.163,-176.672 276.57,-186.713 275.875,-180.023 279.586,-183.373 279.586,-183.373 279.586,-183.373 275.875,-180.023 282.601,-180.033 272.163,-176.672 272.163,-176.672"/>
<polygon fill="#06430f" stroke="#06430f" points="220.677,-130.184 216.271,-120.143 216.966,-126.833 213.255,-123.483 213.255,-123.483 213.255,-123.483 216.966,-126.833 210.239,-126.823 220.677,-130.184 220.677,-130.184"/>
</g>
<!-- Document -->
<g id="node6" class="node"><title>Document</title>
<ellipse fill="none" stroke="black" cx="672" cy="-106" rx="48.1437" ry="18"/>
<text text-anchor="middle" x="672" y="-102.3" font-family="Times,serif" font-size="14.00">Document</text>
</g>
<!-- DocumentType&#45;&gt;Document -->
<g id="edge1" class="edge"><title>DocumentType&#45;&gt;Document</title>
<path fill="none" stroke="#bbbcda" d="M353.114,-186.295C426.102,-168.146 553.691,-136.419 623.303,-119.109"/>
<ellipse fill="none" stroke="#bbbcda" cx="348.87" cy="-187.35" rx="4.00001" ry="4.00001"/>
<polygon fill="#bbbcda" stroke="#bbbcda" points="623.435,-119.076 634.226,-121.03 628.287,-117.87 633.14,-116.663 633.14,-116.663 633.14,-116.663 628.287,-117.87 632.054,-112.296 623.435,-119.076 623.435,-119.076"/>
</g>
<!-- DocumentTypesDocumentProcess -->
<g id="node11" class="node"><title>DocumentTypesDocumentProcess</title>
<ellipse fill="none" stroke="black" cx="195" cy="-18" rx="133.357" ry="18"/>
<text text-anchor="middle" x="195" y="-14.3" font-family="Times,serif" font-size="14.00">DocumentTypesDocumentProcess</text>
</g>
<!-- DocumentType&#45;&gt;DocumentTypesDocumentProcess -->
<g id="edge2" class="edge"><title>DocumentType&#45;&gt;DocumentTypesDocumentProcess</title>
<path fill="none" stroke="#ad7b9f" d="M298.334,-174.617C297.572,-150.741 293.571,-114.761 278,-88 267.086,-69.2424 249.06,-53.335 232.59,-41.5378"/>
<ellipse fill="none" stroke="#ad7b9f" cx="298.411" cy="-178.827" rx="4" ry="4"/>
<polygon fill="#ad7b9f" stroke="#ad7b9f" points="232.408,-41.4126 226.714,-32.0409 228.287,-38.5812 224.166,-35.7499 224.166,-35.7499 224.166,-35.7499 228.287,-38.5812 221.618,-39.459 232.408,-41.4126 232.408,-41.4126"/>
</g>
<!-- Notification -->
<g id="node3" class="node"><title>Notification</title>
<ellipse fill="none" stroke="black" cx="844" cy="-18" rx="52.9443" ry="18"/>
<text text-anchor="middle" x="844" y="-14.3" font-family="Times,serif" font-size="14.00">Notification</text>
</g>
<!-- DocumentProcess&#45;&gt;DocumentTypesDocumentProcess -->
<g id="edge4" class="edge"><title>DocumentProcess&#45;&gt;DocumentTypesDocumentProcess</title>
<path fill="none" stroke="#901069" d="M195,-79.3391C195,-68.8546 195,-56.7182 195,-46.091"/>
<ellipse fill="none" stroke="#901069" cx="195" cy="-83.5966" rx="4" ry="4"/>
<polygon fill="#901069" stroke="#901069" points="195,-46.084 199.5,-36.084 195,-41.084 195,-36.084 195,-36.084 195,-36.084 195,-41.084 190.5,-36.0841 195,-46.084 195,-46.084"/>
</g>
<!-- Folder -->
<g id="node5" class="node"><title>Folder</title>
<ellipse fill="none" stroke="black" cx="672" cy="-201" rx="33.1991" ry="18"/>
<text text-anchor="middle" x="672" y="-197.3" font-family="Times,serif" font-size="14.00">Folder</text>
</g>
<!-- Folder&#45;&gt;Folder -->
<g id="edge5" class="edge"><title>Folder&#45;&gt;Folder</title>
<path fill="none" stroke="#d4c8f4" d="M712.194,-206.007C718.609,-205.275 723,-203.605 723,-201 723,-198.678 719.512,-197.099 714.211,-196.265"/>
<ellipse fill="none" stroke="#d4c8f4" cx="707.87" cy="-206.231" rx="4" ry="4"/>
<polygon fill="#d4c8f4" stroke="#d4c8f4" points="713.852,-196.24 704.18,-191.073 708.863,-195.901 703.875,-195.562 703.875,-195.562 703.875,-195.562 708.863,-195.901 703.57,-200.052 713.852,-196.24 713.852,-196.24"/>
<text text-anchor="middle" x="745.5" y="-197.3" font-family="Times,serif" font-size="14.00">children</text>
</g>
<!-- Folder&#45;&gt;Folder -->
<g id="edge7" class="edge"><title>Folder&#45;&gt;Folder</title>
<path fill="none" stroke="#81ec24" d="M709.63,-210.934C737.435,-213.694 768,-210.382 768,-201 768,-191.859 738.989,-188.481 711.783,-190.865"/>
<ellipse fill="none" stroke="#81ec24" cx="705.478" cy="-210.426" rx="4.00001" ry="4.00001"/>
<polygon fill="#81ec24" stroke="#81ec24" points="711.441,-190.904 700.988,-187.591 706.475,-191.482 701.508,-192.061 701.508,-192.061 701.508,-192.061 706.475,-191.482 702.028,-196.53 711.441,-190.904 711.441,-190.904"/>
</g>
<!-- Folder&#45;&gt;Document -->
<g id="edge6" class="edge"><title>Folder&#45;&gt;Document</title>
<path fill="none" stroke="#fc60c8" d="M672,-174.562C672,-162.078 672,-147.025 672,-134.299"/>
<ellipse fill="none" stroke="#fc60c8" cx="672" cy="-178.942" rx="4" ry="4"/>
<polygon fill="#fc60c8" stroke="#fc60c8" points="672,-134.264 676.5,-124.264 672,-129.264 672,-124.264 672,-124.264 672,-124.264 672,-129.264 667.5,-124.264 672,-134.264 672,-134.264"/>
</g>
<!-- Document&#45;&gt;Notification -->
<g id="edge11" class="edge"><title>Document&#45;&gt;Notification</title>
<path fill="none" stroke="#b96ba9" d="M707.035,-87.4825C735.927,-73.0363 776.826,-52.5871 806.4,-37.7998"/>
<ellipse fill="none" stroke="#b96ba9" cx="703.212" cy="-89.3937" rx="4.00002" ry="4.00002"/>
<polygon fill="#b96ba9" stroke="#b96ba9" points="806.631,-37.6846 817.588,-37.2374 811.103,-35.4485 815.575,-33.2125 815.575,-33.2125 815.575,-33.2125 811.103,-35.4485 813.563,-29.1875 806.631,-37.6846 806.631,-37.6846"/>
</g>
<!-- DocumentHistory -->
<g id="node10" class="node"><title>DocumentHistory</title>
<ellipse fill="none" stroke="black" cx="699" cy="-18" rx="74.1402" ry="18"/>
<text text-anchor="middle" x="699" y="-14.3" font-family="Times,serif" font-size="14.00">DocumentHistory</text>
</g>
<!-- Document&#45;&gt;DocumentHistory -->
<g id="edge9" class="edge"><title>Document&#45;&gt;DocumentHistory</title>
<path fill="none" stroke="#deb118" d="M679.818,-80.0971C683.19,-69.3589 687.139,-56.7789 690.575,-45.8343"/>
<ellipse fill="none" stroke="#deb118" cx="678.533" cy="-84.1928" rx="4.00001" ry="4.00001"/>
<polygon fill="#deb118" stroke="#deb118" points="690.681,-45.4964 697.97,-37.3035 692.179,-40.726 693.677,-35.9555 693.677,-35.9555 693.677,-35.9555 692.179,-40.726 689.383,-34.6076 690.681,-45.4964 690.681,-45.4964"/>
</g>
<!-- Checkin -->
<g id="node12" class="node"><title>Checkin</title>
<ellipse fill="none" stroke="black" cx="387" cy="-18" rx="39.9464" ry="18"/>
<text text-anchor="middle" x="387" y="-14.3" font-family="Times,serif" font-size="14.00">Checkin</text>
</g>
<!-- Document&#45;&gt;Checkin -->
<g id="edge10" class="edge"><title>Document&#45;&gt;Checkin</title>
<path fill="none" stroke="#55ab33" d="M626.244,-92.3472C578.549,-78.9889 501.731,-56.9973 436,-36 433.092,-35.071 430.094,-34.0898 427.082,-33.0867"/>
<ellipse fill="none" stroke="#55ab33" cx="630.369" cy="-93.5002" rx="4.00001" ry="4.00001"/>
<polygon fill="#55ab33" stroke="#55ab33" points="426.976,-33.0508 418.947,-25.5821 422.24,-31.4476 417.504,-29.8445 417.504,-29.8445 417.504,-29.8445 422.24,-31.4476 416.061,-34.1069 426.976,-33.0508 426.976,-33.0508"/>
</g>
<!-- Document::Version -->
<g id="node16" class="node"><title>Document::Version</title>
<ellipse fill="none" stroke="black" cx="526" cy="-18" rx="80.389" ry="18"/>
<text text-anchor="middle" x="526" y="-14.3" font-family="Times,serif" font-size="14.00">Document::Version</text>
</g>
<!-- Document&#45;&gt;Document::Version -->
<g id="edge8" class="edge"><title>Document&#45;&gt;Document::Version</title>
<path fill="none" stroke="#da1672" d="M640.188,-86.2616C617.118,-72.6723 585.89,-54.2775 561.922,-40.1593"/>
<ellipse fill="none" stroke="#da1672" cx="643.787" cy="-88.3811" rx="4.00002" ry="4.00002"/>
<polygon fill="#da1672" stroke="#da1672" points="561.74,-40.0522 555.407,-31.0994 557.431,-37.5145 553.123,-34.9767 553.123,-34.9767 553.123,-34.9767 557.431,-37.5145 550.839,-38.8541 561.74,-40.0522 561.74,-40.0522"/>
<text text-anchor="middle" x="635" y="-58.3" font-family="Times,serif" font-size="14.00">versions</text>
</g>
<!-- SistemConfiguration -->
<g id="node7" class="node"><title>SistemConfiguration</title>
<ellipse fill="none" stroke="black" cx="974" cy="-201" rx="84.2388" ry="18"/>
<text text-anchor="middle" x="974" y="-197.3" font-family="Times,serif" font-size="14.00">SistemConfiguration</text>
</g>
<!-- DocumentVersion -->
<g id="node8" class="node"><title>DocumentVersion</title>
<ellipse fill="none" stroke="black" cx="1152" cy="-201" rx="75.0904" ry="18"/>
<text text-anchor="middle" x="1152" y="-197.3" font-family="Times,serif" font-size="14.00">DocumentVersion</text>
</g>
<!-- UsersUserGroup -->
<g id="node9" class="node"><title>UsersUserGroup</title>
<ellipse fill="none" stroke="black" cx="1103" cy="-18" rx="69.3156" ry="18"/>
<text text-anchor="middle" x="1103" y="-14.3" font-family="Times,serif" font-size="14.00">UsersUserGroup</text>
</g>
<!-- User -->
<g id="node13" class="node"><title>User</title>
<ellipse fill="none" stroke="black" cx="844" cy="-201" rx="26.949" ry="18"/>
<text text-anchor="middle" x="844" y="-197.3" font-family="Times,serif" font-size="14.00">User</text>
</g>
<!-- User&#45;&gt;Notification -->
<g id="edge12" class="edge"><title>User&#45;&gt;Notification</title>
<path fill="none" stroke="#fbb5e0" d="M844,-174.611C844,-140.823 844,-81.3028 844,-46.4866"/>
<ellipse fill="none" stroke="#fbb5e0" cx="844" cy="-178.972" rx="4" ry="4"/>
<polygon fill="#fbb5e0" stroke="#fbb5e0" points="844,-46.1146 848.5,-36.1146 844,-41.1146 844,-36.1146 844,-36.1146 844,-36.1146 844,-41.1146 839.5,-36.1147 844,-46.1146 844,-46.1146"/>
</g>
<!-- User&#45;&gt;Document -->
<g id="edge13" class="edge"><title>User&#45;&gt;Document</title>
<path fill="none" stroke="#23e99f" d="M821.492,-180.727C813.433,-174.326 804.089,-167.449 795,-162 787.308,-157.389 744.689,-138.564 711.752,-124.21"/>
<ellipse fill="none" stroke="#23e99f" cx="824.821" cy="-183.429" rx="4.00002" ry="4.00002"/>
<polygon fill="#23e99f" stroke="#23e99f" points="711.493,-124.098 704.119,-115.982 706.908,-122.103 702.324,-120.108 702.324,-120.108 702.324,-120.108 706.908,-122.103 700.528,-124.234 711.493,-124.098 711.493,-124.098"/>
</g>
<!-- User&#45;&gt;UsersUserGroup -->
<g id="edge15" class="edge"><title>User&#45;&gt;UsersUserGroup</title>
<path fill="none" stroke="#ca0d84" d="M861.19,-178.362C866.927,-172.321 873.727,-166.254 881,-162 937.765,-128.799 969.457,-160.737 1024,-124 1053.73,-103.974 1076.73,-68.9703 1090.06,-44.9221"/>
<ellipse fill="none" stroke="#ca0d84" cx="858.503" cy="-181.352" rx="4.00002" ry="4.00002"/>
<polygon fill="#ca0d84" stroke="#ca0d84" points="1090.12,-44.7992 1098.81,-38.1109 1092.49,-40.3922 1094.85,-35.9852 1094.85,-35.9852 1094.85,-35.9852 1092.49,-40.3922 1090.88,-33.8595 1090.12,-44.7992 1090.12,-44.7992"/>
</g>
<!-- User&#45;&gt;DocumentHistory -->
<g id="edge14" class="edge"><title>User&#45;&gt;DocumentHistory</title>
<path fill="none" stroke="#ad4df2" d="M826.788,-178.515C799.737,-144.747 747.414,-79.4334 718.827,-43.7494"/>
<ellipse fill="none" stroke="#ad4df2" cx="829.386" cy="-181.758" rx="4.00002" ry="4.00002"/>
<polygon fill="#ad4df2" stroke="#ad4df2" points="718.687,-43.5744 715.947,-32.9564 715.561,-39.6722 712.434,-35.7699 712.434,-35.7699 712.434,-35.7699 715.561,-39.6722 708.922,-38.5834 718.687,-43.5744 718.687,-43.5744"/>
</g>
<!-- UserGroup -->
<g id="node14" class="node"><title>UserGroup</title>
<ellipse fill="none" stroke="black" cx="965" cy="-106" rx="50.0684" ry="18"/>
<text text-anchor="middle" x="965" y="-102.3" font-family="Times,serif" font-size="14.00">UserGroup</text>
</g>
<!-- User&#45;&gt;UserGroup -->
<g id="edge16" class="edge"><title>User&#45;&gt;UserGroup</title>
<path fill="none" stroke="#4c4fe8" d="M864.235,-177.58C869.48,-172.238 875.271,-166.721 881,-162 896.406,-149.305 914.839,-136.961 930.507,-127.195"/>
<polygon fill="#4c4fe8" stroke="#4c4fe8" points="863.906,-177.926 853.752,-182.068 860.459,-181.548 857.012,-185.171 857.012,-185.171 857.012,-185.171 860.459,-181.548 860.272,-188.273 863.906,-177.926 863.906,-177.926"/>
<polygon fill="#4c4fe8" stroke="#4c4fe8" points="930.845,-126.988 941.722,-125.596 935.107,-124.374 939.369,-121.76 939.369,-121.76 939.369,-121.76 935.107,-124.374 937.017,-117.924 930.845,-126.988 930.845,-126.988"/>
</g>
<!-- UserGroup&#45;&gt;UsersUserGroup -->
<g id="edge18" class="edge"><title>UserGroup&#45;&gt;UsersUserGroup</title>
<path fill="none" stroke="#769fa2" d="M996.009,-85.6756C1017.66,-72.1837 1046.56,-54.1737 1068.86,-40.2728"/>
<ellipse fill="none" stroke="#769fa2" cx="992.433" cy="-87.9043" rx="4.00002" ry="4.00002"/>
<polygon fill="#769fa2" stroke="#769fa2" points="1068.88,-40.2634 1079.75,-38.7935 1073.12,-37.6189 1077.37,-34.9744 1077.37,-34.9744 1077.37,-34.9744 1073.12,-37.6189 1074.99,-31.1553 1068.88,-40.2634 1068.88,-40.2634"/>
</g>
<!-- Permission -->
<g id="node15" class="node"><title>Permission</title>
<ellipse fill="none" stroke="black" cx="965" cy="-18" rx="50.0684" ry="18"/>
<text text-anchor="middle" x="965" y="-14.3" font-family="Times,serif" font-size="14.00">Permission</text>
</g>
<!-- UserGroup&#45;&gt;Permission -->
<g id="edge17" class="edge"><title>UserGroup&#45;&gt;Permission</title>
<path fill="none" stroke="#9b8d87" d="M965,-79.3391C965,-68.8546 965,-56.7182 965,-46.091"/>
<ellipse fill="none" stroke="#9b8d87" cx="965" cy="-83.5966" rx="4" ry="4"/>
<polygon fill="#9b8d87" stroke="#9b8d87" points="965,-46.084 969.5,-36.084 965,-41.084 965,-36.084 965,-36.084 965,-36.084 965,-41.084 960.5,-36.0841 965,-46.084 965,-46.084"/>
</g>
</g>
</svg>
